<?xml version="1.0" standalone="no"?>
<!DOCTYPE svg PUBLIC "-//W3C//DTD SVG 20010904//EN"
 "http://www.w3.org/TR/2001/REC-SVG-20010904/DTD/svg10.dtd">
<svg version="1.0" xmlns="http://www.w3.org/2000/svg"
 width="700.000000pt" height="700.000000pt" viewBox="0 0 700.000000 700.000000"
 preserveAspectRatio="xMidYMid meet">
<metadata>
Created by potrace 1.14, written by Peter Selinger 2001-2017
</metadata>
<g transform="translate(0.000000,700.000000) scale(0.100000,-0.100000)"
fill="#000000" stroke="none">
<path d="M2045 6980 c-448 -26 -879 -191 -1227 -468 -366 -292 -636 -711 -748
-1161 -67 -270 -64 -177 -68 -1776 -2 -1002 0 -1490 8 -1580 90 -1065 927
-1899 1990 -1985 92 -8 593 -10 1580 -8 1594 4 1517 2 1777 68 453 117 864
383 1155 748 248 311 399 674 460 1107 19 133 19 2984 0 3135 -94 749 -532
1371 -1197 1700 -213 106 -432 172 -700 211 -93 14 -2811 22 -3030 9z m3506
-1650 c130 -43 256 -153 313 -274 75 -159 72 -330 -10 -489 -36 -67 -125 -159
-1403 -1438 -840 -841 -1387 -1381 -1421 -1403 -96 -62 -159 -79 -295 -80
-141 -1 -199 16 -305 89 -84 57 -1224 1200 -1268 1271 -100 159 -107 371 -20
538 43 81 146 182 228 224 68 34 178 62 245 62 66 0 176 -28 245 -62 57 -28
115 -82 470 -435 l405 -403 1150 1151 c728 729 1171 1165 1208 1189 53 35 142
71 207 84 51 10 189 -3 251 -24z"/>
</g>
</svg>
